<svg width="90" height="60" viewBox="0 0 90 60" fill="none" xmlns="http://www.w3.org/2000/svg">
<path d="M37.3355 54.9999H22.5062C21.1242 54.9999 20 53.8727 20 52.4896V22.9092C20 21.526 21.1242 20.4001 22.5062 20.4001H33.3251C33.6395 20.4001 33.8958 20.6566 33.8958 20.9713C33.8958 21.2863 33.6395 21.5425 33.3251 21.5425H22.5062C21.7532 21.5425 21.1411 22.1557 21.1411 22.9092V52.4896C21.1411 53.2446 21.7532 53.8576 22.5062 53.8576H37.3355C37.6501 53.8576 37.906 54.1138 37.906 54.4289C37.906 54.7434 37.6501 54.9999 37.3355 54.9999Z" fill="#555555"/>
<path d="M28.0929 32.898H25.2223C24.6921 32.898 24.2607 32.466 24.2607 31.9353V27.2896C24.2607 26.7586 24.6922 26.3269 25.2223 26.3269H28.0929C28.6218 26.3269 29.0532 26.7586 29.0532 27.2896V31.9353C29.0533 32.466 28.6219 32.898 28.0929 32.898ZM25.4019 31.7557H27.9122V27.4693H25.4019V31.7557Z" fill="#E83845"/>
<path d="M28.0929 40.6532H25.2223C24.6921 40.6532 24.2607 40.2212 24.2607 39.6903V35.0444C24.2607 34.5137 24.6922 34.0818 25.2223 34.0818H28.0929C28.6218 34.0818 29.0532 34.5138 29.0532 35.0444V39.6903C29.0533 40.2212 28.6219 40.6532 28.0929 40.6532ZM25.4019 39.5108H27.9122V35.2242H25.4019V39.5108Z" fill="#E83845"/>
<path d="M28.0929 48.4082H25.2223C24.6921 48.4082 24.2607 47.9762 24.2607 47.4456V42.7997C24.2607 42.2691 24.6922 41.8372 25.2223 41.8372H28.0929C28.6218 41.8372 29.0532 42.2692 29.0532 42.7997V47.4456C29.0533 47.9763 28.6219 48.4082 28.0929 48.4082ZM25.4019 47.2658H27.9122V42.9795H25.4019V47.2658Z" fill="#E83845"/>
<path d="M67.4931 55.0007H52.6639C52.3495 55.0007 52.0933 54.7442 52.0933 54.4296C52.0933 54.1146 52.3495 53.8583 52.6639 53.8583H67.4932C68.2462 53.8583 68.8583 53.2453 68.8583 52.4903L68.8597 22.9099C68.8597 22.1564 68.2476 21.5433 67.4946 21.5433H56.677C56.3627 21.5433 56.1064 21.2871 56.1064 20.9721C56.1064 20.6574 56.3627 20.4009 56.677 20.4009H67.4946C68.8765 20.4009 70.0008 21.5267 70.0008 22.9099L69.9995 52.4903C69.9995 53.8735 68.8751 55.0007 67.4931 55.0007Z" fill="#555555"/>
<path d="M64.7793 32.8983H61.9086C61.3797 32.8983 60.9485 32.4663 60.9485 31.9355V27.2898C60.9485 26.7588 61.3797 26.3271 61.9086 26.3271H64.7793C65.3095 26.3271 65.7408 26.7588 65.7408 27.2898V31.9355C65.7408 32.4663 65.3095 32.8983 64.7793 32.8983ZM62.0896 31.7559H64.5997V27.4695H62.0896V31.7559Z" fill="#E83845"/>
<path d="M64.7793 40.6534H61.9086C61.3797 40.6534 60.9485 40.2214 60.9485 39.6905V35.0446C60.9485 34.514 61.3797 34.082 61.9086 34.082H64.7793C65.3095 34.082 65.7408 34.5141 65.7408 35.0446V39.6905C65.7408 40.2214 65.3095 40.6534 64.7793 40.6534ZM62.0896 39.511H64.5997V35.2244H62.0896V39.511Z" fill="#E83845"/>
<path d="M64.7793 48.4085H61.9086C61.3797 48.4085 60.9485 47.9764 60.9485 47.4459V42.8C60.9485 42.2694 61.3797 41.8374 61.9086 41.8374H64.7793C65.3095 41.8374 65.7408 42.2694 65.7408 42.8V47.4459C65.7408 47.9765 65.3095 48.4085 64.7793 48.4085ZM62.0896 47.2661H64.5997V42.9797H62.0896V47.2661Z" fill="#E83845"/>
<path d="M41.5094 33.451H38.6402C38.1101 33.451 37.6786 33.0193 37.6786 32.4883V27.8425C37.6786 27.3118 38.1101 26.8799 38.6402 26.8799H41.5094C42.0397 26.8799 42.4713 27.3118 42.4713 27.8425V32.4883C42.4713 33.0193 42.0397 33.451 41.5094 33.451ZM38.8197 32.3086H41.3301V28.0222H38.8197V32.3086Z" fill="#E83845"/>
<path d="M41.5094 41.7054H38.6402C38.1101 41.7054 37.6786 41.2735 37.6786 40.7428V36.097C37.6786 35.566 38.1101 35.1343 38.6402 35.1343H41.5094C42.0397 35.1343 42.4713 35.566 42.4713 36.097V40.7428C42.4713 41.2735 42.0397 41.7054 41.5094 41.7054ZM38.8197 40.563H41.3301V36.2767H38.8197V40.563Z" fill="#E83845"/>
<path d="M41.5096 16.9434H38.6403C38.1103 16.9434 37.6787 16.5114 37.6787 15.9807V11.335C37.6787 10.8039 38.1103 10.3723 38.6403 10.3723H41.5096C42.0399 10.3723 42.4714 10.8039 42.4714 11.335V15.9807C42.4714 16.5114 42.0399 16.9434 41.5096 16.9434ZM38.8198 15.8011H41.3302V11.5148H38.8198V15.8011Z" fill="#E83845"/>
<path d="M41.5094 25.1978H38.6402C38.1101 25.1978 37.6786 24.7658 37.6786 24.2351V19.5891C37.6786 19.0583 38.1101 18.6265 38.6402 18.6265H41.5094C42.0397 18.6265 42.4713 19.0583 42.4713 19.5891V24.2351C42.4713 24.7658 42.0397 25.1978 41.5094 25.1978ZM38.8197 24.0555H41.3301V19.7688H38.8197V24.0555Z" fill="#E83845"/>
<path d="M51.3581 33.4507H48.4889C47.9587 33.4507 47.5275 33.019 47.5275 32.488V27.8422C47.5275 27.3116 47.9587 26.8796 48.4889 26.8796H51.3581C51.8882 26.8796 52.3196 27.3116 52.3196 27.8422V32.488C52.3197 33.019 51.8882 33.4507 51.3581 33.4507ZM48.6685 32.3083H51.1785V28.0219H48.6685V32.3083Z" fill="#E83845"/>
<path d="M51.3581 41.7057H48.4889C47.9587 41.7057 47.5275 41.2737 47.5275 40.7431V36.0972C47.5275 35.5662 47.9587 35.1345 48.4889 35.1345H51.3581C51.8882 35.1345 52.3196 35.5662 52.3196 36.0972V40.7431C52.3197 41.2737 51.8882 41.7057 51.3581 41.7057ZM48.6685 40.5633H51.1785V36.2769H48.6685V40.5633Z" fill="#E83845"/>
<path d="M51.3581 16.9434H48.4889C47.9587 16.9434 47.5275 16.5114 47.5275 15.9807V11.335C47.5275 10.8039 47.9587 10.3723 48.4889 10.3723H51.3581C51.8882 10.3723 52.3196 10.8039 52.3196 11.335V15.9807C52.3197 16.5114 51.8882 16.9434 51.3581 16.9434ZM48.6685 15.8011H51.1785V11.5148H48.6685V15.8011Z" fill="#E83845"/>
<path d="M51.3581 25.1975H48.4889C47.9587 25.1975 47.5275 24.7656 47.5275 24.2349V19.5888C47.5275 19.0581 47.9587 18.6262 48.4889 18.6262H51.3581C51.8882 18.6262 52.3196 19.0581 52.3196 19.5888V24.2349C52.3197 24.7656 51.8882 25.1975 51.3581 25.1975ZM48.6685 24.0552H51.1785V19.7686H48.6685V24.0552Z" fill="#E83845"/>
<path d="M53.0464 54.9999H36.9548C34.6393 54.9999 32.7553 53.1135 32.7553 50.7955V9.20424C32.7553 6.88619 34.6393 5 36.9548 5H53.0464C55.3618 5 57.2458 6.88619 57.2458 9.20424V50.7955C57.2458 53.1135 55.3619 54.9999 53.0464 54.9999ZM36.9549 6.14231C35.2684 6.14231 33.8964 7.51578 33.8964 9.20424V50.7955C33.8964 52.4838 35.2684 53.8576 36.9549 53.8576H53.0465C54.733 53.8576 56.1049 52.4838 56.1049 50.7955V9.20424C56.1049 7.51578 54.733 6.14231 53.0465 6.14231H36.9549Z" fill="#555555"/>
<path d="M47.2134 54.7228H42.7856C42.4713 54.7228 42.2151 54.4663 42.2151 54.1516V44.5478C42.2151 44.0309 42.6369 43.6104 43.153 43.6104H46.846C47.3625 43.6104 47.784 44.0309 47.784 44.5478V54.1516C47.784 54.4663 47.5281 54.7228 47.2134 54.7228ZM43.3561 53.5804H46.6429V44.7527H43.3561V53.5804Z" fill="#555555"/>
<path d="M45.7877 49.3246C45.4733 49.3246 45.2172 49.0685 45.2172 48.7535C45.2172 48.4389 45.4733 48.167 45.7877 48.167C46.1024 48.167 46.3582 48.4081 46.3582 48.723V48.7536C46.3582 49.0685 46.1024 49.3246 45.7877 49.3246Z" fill="#555555"/>
</svg>
