<svg width="90" height="61" viewBox="0 0 90 61" fill="none" xmlns="http://www.w3.org/2000/svg">
<path d="M8.34924 31.9449C8.34924 31.9449 27.3449 31.0559 38.606 30.1144C49.867 29.1728 61.8192 26.3621 61.8192 26.3621L61.2858 26.448C63.8973 26.2654 66.1456 27.9941 66.3074 30.3091C66.4694 32.6241 64.4835 34.6489 61.872 34.8315L61.8727 34.8425C54.7877 33.7969 42.8312 35.4438 35.2507 36.128C27.6703 36.8122 8.932 40.28 8.932 40.28L8.34924 31.9449Z" fill="#E83845"/>
<path d="M9.11183 40.272C10.8193 40.0821 11.9956 38.059 11.7392 35.7532C11.4829 33.4474 9.89091 31.7321 8.18348 31.9219C6.47606 32.1117 5.29974 34.1348 5.55609 36.4406C5.81245 38.7465 7.40441 40.4618 9.11183 40.272Z" fill="#E83845"/>
<path d="M8.88429 38.2319C9.75798 38.1347 10.3599 37.0995 10.2287 35.9196C10.0976 34.7397 9.28294 33.862 8.40926 33.9591C7.53557 34.0563 6.93364 35.0915 7.06482 36.2714C7.196 37.4513 8.01061 38.329 8.88429 38.2319Z" fill="white"/>
<path d="M18.7634 40.27C18.7634 40.27 36.7782 34.1795 47.3435 30.1705C57.9088 26.1615 68.6232 20.1651 68.6232 20.1651L68.1342 20.3947C70.5942 19.4993 73.2318 20.5414 74.0256 22.7221C74.8193 24.9028 73.4686 27.3965 71.0085 28.2919L71.0122 28.3021C63.9134 29.2498 52.874 34.1287 45.7758 36.8759C38.6776 39.623 21.621 48.1216 21.621 48.1216L18.7634 40.27Z" fill="#E83845"/>
<path d="M22.0195 47.9043C23.5371 47.1616 23.9472 44.8838 22.9356 42.8167C21.9239 40.7497 19.8735 39.6761 18.356 40.4188C16.8384 41.1616 16.4283 43.4394 17.4399 45.5064C18.4516 47.5735 20.5019 48.6471 22.0195 47.9043Z" fill="#E83845"/>
<path d="M21.3278 43.0509C22.0148 43.9884 22.0597 45.251 21.428 45.8709C20.7964 46.4908 19.7274 46.2335 19.0404 45.296C18.3534 44.3584 18.3085 43.0959 18.9402 42.476C19.5718 41.8561 20.6408 42.1135 21.3278 43.0509Z" fill="white"/>
<path d="M32.7479 43.2406H37.0083C37.0083 43.2406 59.4938 57.3359 79.2944 42.9049H83.6049C84.0045 42.9049 84.3285 42.581 84.3285 42.1813V38.318C84.3285 38.0439 84.1736 37.7934 83.9284 37.6709L80.7954 36.1044C80.4969 35.9551 80.3007 35.6611 80.2768 35.3282C80.1602 33.6929 79.4845 28.5368 75.5693 23.6893C68.7801 15.2835 56.7599 13.4643 47.4553 18.9575C42.2371 22.0382 37.0954 27.2284 36.3846 35.8309C36.3562 36.1743 36.1152 36.4638 35.778 36.5341C34.9049 36.7161 33.2714 37.348 32.4589 37.6736C32.1657 37.7911 31.9744 38.0753 31.9744 38.3913V42.4668C31.9742 42.8942 32.3206 43.2406 32.7479 43.2406Z" fill="white"/>
<path d="M59.2348 50.1786C56.4106 50.1786 53.5112 49.8652 50.5656 49.2394C43.1659 47.6675 37.8671 44.6556 36.7917 44.0125H32.7478C31.8956 44.0125 31.2023 43.3192 31.2023 42.4671V38.3914C31.2023 37.7562 31.5828 37.1933 32.1718 36.9574C33.0628 36.6004 34.6929 35.9735 35.6137 35.7802C35.613 35.7785 35.6146 35.7741 35.6152 35.7676C35.9529 31.6798 37.2962 28.0122 39.6076 24.8667C41.4783 22.3208 43.9866 20.1092 47.0629 18.2931C51.7488 15.5266 57.2594 14.481 62.5798 15.3497C67.9617 16.2281 72.7881 19.0177 76.1697 23.2045C80.2574 28.2654 80.9361 33.7217 81.0466 35.2733C81.051 35.3342 81.0862 35.3868 81.1405 35.414L84.2736 36.9805C84.7834 37.2354 85.1002 37.7479 85.1002 38.3179V42.1813C85.1002 43.0058 84.4294 43.6766 83.6048 43.6766H79.5443C74.978 46.9569 69.8988 49.0199 64.4443 49.8091C62.7425 50.0556 61.0031 50.1786 59.2348 50.1786ZM58.832 16.6214C55.0804 16.6214 51.2772 17.5976 47.8475 19.6223C41.3254 23.4728 37.7276 28.9476 37.1536 35.8947C37.0962 36.5891 36.6067 37.1498 35.9353 37.2898C35.3481 37.4122 34.1855 37.8133 32.7457 38.3901L32.7478 42.4687H37.2301L37.4181 42.5866C37.4732 42.6212 43.0546 46.0751 50.9363 47.7399C61.438 49.9583 70.826 48.1217 78.8397 42.2811L79.0428 42.1331H83.5565V38.3479L80.4501 36.7947C79.9112 36.5252 79.5497 35.9843 79.5069 35.3831C79.4043 33.9448 78.774 28.8855 74.9686 24.1743C70.9868 19.2447 64.9799 16.6214 58.832 16.6214Z" fill="#555555"/>
<path d="M51.7746 32.8372L48.083 15.7215C48.083 15.7215 58.7415 9.11747 68.8096 15.494C68.5269 17.1902 65.1988 32.8373 65.1988 32.8373L51.7746 32.8372Z" fill="white"/>
<path d="M51.0208 32.9999L47.2144 15.352L47.6771 15.0653C47.7905 14.995 50.5005 13.3343 54.5072 12.4622C59.8428 11.301 64.9314 12.1236 69.2231 14.8418L69.6556 15.1158L69.5715 15.6207C69.2893 17.3145 66.0904 32.3582 65.9543 32.9978L64.4445 32.6766C64.4755 32.5307 67.3476 19.0243 67.9551 15.8746C64.0785 13.5712 59.6844 12.9267 54.8859 13.9596C52.0518 14.5697 49.8713 15.6244 48.9578 16.1141L52.5297 32.6744L51.0208 32.9999Z" fill="#555555"/>
</svg>
