<svg width="90" height="61" viewBox="0 0 90 61" fill="none" xmlns="http://www.w3.org/2000/svg">
<path d="M69.4787 22.5588H56.4578V21.7775H57.4995C57.6376 21.7775 57.7701 21.7226 57.8678 21.625C57.9655 21.5273 58.0203 21.3948 58.0203 21.2567V18.9598C58.0203 18.8217 57.9655 18.6892 57.8678 18.5915C57.7701 18.4938 57.6376 18.439 57.4995 18.439H32.4995C32.3614 18.439 32.2289 18.4938 32.1312 18.5915C32.0336 18.6892 31.9787 18.8217 31.9787 18.9598V21.2567C31.9787 21.3948 32.0336 21.5273 32.1312 21.625C32.2289 21.7226 32.3614 21.7775 32.4995 21.7775H33.5412V22.5588H20.5203C20.3822 22.5588 20.2497 22.6136 20.1521 22.7113C20.0544 22.809 19.9995 22.9415 19.9995 23.0796V25.3817C19.9995 25.5198 20.0544 25.6523 20.1521 25.75C20.2497 25.8476 20.3822 25.9025 20.5203 25.9025H21.1714V55.5431C21.1714 55.6813 21.2263 55.8137 21.3239 55.9114C21.4216 56.0091 21.5541 56.064 21.6922 56.064H68.3068C68.4449 56.064 68.5774 56.0091 68.6751 55.9114C68.7728 55.8137 68.8276 55.6813 68.8276 55.5431V25.9025H69.4787C69.6168 25.9025 69.7493 25.8476 69.847 25.75C69.9446 25.6523 69.9995 25.5198 69.9995 25.3817V23.0796C69.9995 22.9415 69.9446 22.809 69.847 22.7113C69.7493 22.6136 69.6168 22.5588 69.4787 22.5588ZM33.0203 20.7358V19.4806H56.9787V20.7358H33.0203ZM34.5828 21.7775H55.4162V45.0848H34.5828V21.7775ZM65.5724 46.1265V47.7775H24.4266V46.1265H65.5724ZM49.2756 55.0223H47.9058V50.5744C47.9058 50.4362 47.8509 50.3038 47.7532 50.2061C47.6555 50.1084 47.5231 50.0535 47.3849 50.0535H42.6141C42.476 50.0535 42.3435 50.1084 42.2458 50.2061C42.1481 50.3038 42.0933 50.4362 42.0933 50.5744V55.0223H40.7235V48.8192H49.2756V55.0223ZM21.0412 24.8608V23.6004H33.5412V24.8608H21.0412ZM22.2131 25.9025H33.5412V45.0848H23.9058C23.7676 45.0848 23.6352 45.1397 23.5375 45.2373C23.4398 45.335 23.3849 45.4675 23.3849 45.6056V48.2983C23.3849 48.4365 23.4398 48.5689 23.5375 48.6666C23.6352 48.7643 23.7676 48.8192 23.9058 48.8192H24.9735V55.0223H22.2131V25.9025ZM26.0151 48.8192H37.7078V55.0223H26.0151V48.8192ZM38.7495 55.0223V48.8192H39.7026V55.0223H38.7495ZM43.1558 55.0223V51.0952H46.8849V55.0223H43.1558ZM50.3381 55.0223V48.8192H51.2495V55.0223H50.3381ZM52.2912 55.0223V48.8192H63.9839V55.0223H52.2912ZM67.7651 55.0223H65.0047V48.8192H66.0464C66.1845 48.8192 66.317 48.7643 66.4147 48.6666C66.5123 48.5689 66.5672 48.4365 66.5672 48.2983V45.6056C66.5672 45.4675 66.5123 45.335 66.4147 45.2373C66.317 45.1397 66.1845 45.0848 66.0464 45.0848H56.4578V25.9025H67.786L67.7651 55.0223ZM68.9578 24.8608H56.4578V23.6004H68.9578V24.8608Z" fill="#555555"/>
<path d="M52.1297 12.3764L51.8849 13.8243C51.8578 13.9815 51.8752 14.1431 51.9352 14.2909C51.9953 14.4387 52.0954 14.5667 52.2244 14.6604C52.3534 14.7542 52.5061 14.81 52.6652 14.8215C52.8243 14.8329 52.9834 14.7997 53.1245 14.7254L54.4214 14.0431C55.786 14.7618 55.838 14.8243 56.1193 14.8243C56.2453 14.827 56.3703 14.8017 56.4854 14.7503C56.6005 14.6989 56.7028 14.6227 56.7849 14.5271C56.867 14.4315 56.927 14.3189 56.9605 14.1974C56.994 14.0759 57.0002 13.9485 56.9787 13.8243L56.7339 12.3764L57.7755 11.3348C57.8901 11.2235 57.9712 11.0824 58.0096 10.9274C58.048 10.7724 58.0422 10.6098 57.9928 10.4579C57.9435 10.3061 57.8526 10.1711 57.7304 10.0683C57.6082 9.96554 57.4596 9.89906 57.3016 9.87642L55.838 9.70975L55.187 8.37121C55.1164 8.22847 55.0073 8.1083 54.872 8.02429C54.7367 7.94027 54.5806 7.89575 54.4214 7.89575C54.2621 7.89575 54.106 7.94027 53.9708 8.02429C53.8355 8.1083 53.7264 8.22847 53.6558 8.37121L53.0047 9.70975L51.5516 9.91809C51.3946 9.94252 51.2475 10.01 51.1265 10.113C51.0056 10.216 50.9156 10.3505 50.8665 10.5016C50.8174 10.6527 50.8111 10.8144 50.8484 10.9689C50.8857 11.1233 50.965 11.2644 51.0776 11.3764L52.1297 12.3764ZM53.2547 10.7045C53.3917 10.6827 53.5214 10.6283 53.6329 10.5458C53.7444 10.4633 53.8344 10.3552 53.8953 10.2306L54.4162 9.18892L54.937 10.2306C54.9986 10.3542 55.0889 10.4613 55.2003 10.5428C55.3118 10.6244 55.4412 10.678 55.5776 10.6993L56.7547 10.866L55.937 11.6993C55.8368 11.7963 55.7616 11.9162 55.7181 12.0487C55.6745 12.1811 55.6638 12.3222 55.687 12.4598L55.8901 13.6264L54.8485 13.0743C54.7264 13.01 54.5906 12.9764 54.4526 12.9764C54.3147 12.9764 54.1788 13.01 54.0568 13.0743L53.0151 13.6264L53.213 12.4598C53.2382 12.3226 53.2291 12.1814 53.1863 12.0487C53.1436 11.916 53.0687 11.796 52.9683 11.6993L52.0776 10.8712L53.2547 10.7045Z" fill="#E83845"/>
<path d="M42.7079 10.5483L42.4631 11.9962C42.436 12.1534 42.4534 12.315 42.5134 12.4628C42.5734 12.6105 42.6736 12.7385 42.8026 12.8323C42.9316 12.9261 43.0843 12.9819 43.2433 12.9933C43.4024 13.0048 43.5615 12.9715 43.7026 12.8973L44.9995 12.215C46.3641 12.9337 46.4162 12.9962 46.6974 12.9962C46.8217 12.9958 46.9444 12.9682 47.0569 12.9155C47.1694 12.8627 47.269 12.7861 47.3489 12.6909C47.4287 12.5957 47.4868 12.4842 47.5191 12.3642C47.5514 12.2442 47.5572 12.1186 47.536 11.9962L47.2912 10.5483L48.3329 9.50663C48.4473 9.39574 48.5285 9.25504 48.5671 9.10044C48.6058 8.94584 48.6004 8.78351 48.5517 8.63179C48.5029 8.48007 48.4127 8.34503 48.2912 8.24191C48.1697 8.1388 48.0217 8.07173 47.8641 8.04829L46.411 7.83996L45.7651 6.54309C45.6945 6.40034 45.5854 6.28018 45.4501 6.19616C45.3149 6.11215 45.1588 6.06763 44.9995 6.06763C44.8403 6.06763 44.6842 6.11215 44.5489 6.19616C44.4136 6.28018 44.3045 6.40034 44.2339 6.54309L43.5829 7.86079L42.1297 8.06913C41.9721 8.09256 41.8242 8.15963 41.7027 8.26274C41.5812 8.36586 41.4909 8.50091 41.4422 8.65262C41.3934 8.80434 41.388 8.96667 41.4267 9.12127C41.4654 9.27587 41.5465 9.41657 41.661 9.52746L42.7079 10.5483ZM43.8329 8.87642C43.9702 8.85592 44.1007 8.80261 44.2131 8.72101C44.3255 8.63942 44.4166 8.53194 44.4787 8.40767L44.9995 7.366L45.5204 8.40767C45.5819 8.53129 45.6722 8.63836 45.7837 8.71991C45.8952 8.80147 46.0245 8.85513 46.161 8.87642L47.3381 9.04829L46.4943 9.87121C46.3941 9.96816 46.3189 10.0881 46.2754 10.2205C46.2318 10.353 46.2212 10.4941 46.2443 10.6316L46.4474 11.7931L45.4058 11.241C45.2837 11.1767 45.1479 11.1431 45.0099 11.1431C44.872 11.1431 44.7361 11.1767 44.6141 11.241L43.5724 11.7931L43.7756 10.6264C43.7987 10.4889 43.7881 10.3478 43.7445 10.2153C43.701 10.0828 43.6258 9.96296 43.5256 9.866L42.6558 9.04829L43.8329 8.87642Z" fill="#E83845"/>
<path d="M33.286 12.3764L33.0203 13.8243C32.9932 13.9815 33.0107 14.1431 33.0707 14.2909C33.1307 14.4387 33.2308 14.5667 33.3598 14.6604C33.4888 14.7542 33.6415 14.81 33.8006 14.8215C33.9597 14.8329 34.1188 14.7997 34.2599 14.7254L35.5568 14.0431C36.9214 14.7618 36.9735 14.8243 37.2547 14.8243C37.379 14.8239 37.5016 14.7963 37.6141 14.7436C37.7266 14.6909 37.8263 14.6142 37.9061 14.519C37.986 14.4238 38.0441 14.3123 38.0764 14.1923C38.1087 14.0724 38.1145 13.9468 38.0932 13.8243L37.8485 12.3764L38.8901 11.3348C39.0027 11.2227 39.0821 11.0816 39.1194 10.9272C39.1566 10.7728 39.1504 10.611 39.1013 10.4599C39.0522 10.3089 38.9621 10.1743 38.8412 10.0713C38.7203 9.96833 38.5731 9.90086 38.4162 9.87642L36.9943 9.70975L36.3432 8.37121C36.2726 8.22847 36.1635 8.1083 36.0282 8.02429C35.893 7.94027 35.7369 7.89575 35.5776 7.89575C35.4184 7.89575 35.2623 7.94027 35.127 8.02429C34.9917 8.1083 34.8826 8.22847 34.812 8.37121L34.161 9.70975L32.7078 9.91809C32.5502 9.94152 32.4023 10.0086 32.2808 10.1117C32.1593 10.2148 32.069 10.3499 32.0203 10.5016C31.9715 10.6533 31.9661 10.8156 32.0048 10.9702C32.0435 11.1248 32.1246 11.2655 32.2391 11.3764L33.286 12.3764ZM34.411 10.7045C34.5479 10.6827 34.6776 10.6283 34.7891 10.5458C34.9006 10.4633 34.9906 10.3552 35.0516 10.2306L35.5724 9.18892L36.0932 10.2306C36.1548 10.3542 36.2451 10.4613 36.3566 10.5428C36.468 10.6244 36.5974 10.678 36.7339 10.6993L37.911 10.866L37.062 11.6941C36.9617 11.7911 36.8866 11.911 36.8431 12.0435C36.7995 12.1759 36.7888 12.317 36.812 12.4545L37.0151 13.6212C35.3589 12.7514 35.7755 12.7514 34.1193 13.6212L34.3224 12.4545C34.3434 12.317 34.3306 12.1764 34.2853 12.0448C34.2399 11.9133 34.1633 11.7947 34.062 11.6993L33.2339 10.8712L34.411 10.7045Z" fill="#E83845"/>
<path d="M24.2183 14.6784L23.9735 16.1263C23.9471 16.2828 23.9648 16.4435 24.0246 16.5905C24.0844 16.7375 24.184 16.8649 24.3121 16.9585C24.4403 17.052 24.592 17.108 24.7502 17.1202C24.9084 17.1324 25.0669 17.1002 25.2079 17.0274L26.5047 16.3451C27.8693 17.0586 27.9214 17.1263 28.2027 17.1263C28.3269 17.1259 28.4496 17.0983 28.5621 17.0456C28.6746 16.9929 28.7743 16.9162 28.8541 16.821C28.9339 16.7258 28.992 16.6143 29.0244 16.4943C29.0567 16.3744 29.0624 16.2488 29.0412 16.1263L28.7964 14.6784L29.8381 13.6368C29.953 13.5265 30.0345 13.3862 30.0735 13.2318C30.1124 13.0774 30.1071 12.9151 30.0582 12.7636C30.0094 12.612 29.9188 12.4773 29.797 12.3747C29.6752 12.2722 29.527 12.206 29.3693 12.1836L27.9162 11.9701L27.2912 10.6732C27.2206 10.5305 27.1115 10.4103 26.9762 10.3263C26.8409 10.2423 26.6848 10.1978 26.5256 10.1978C26.3663 10.1978 26.2102 10.2423 26.075 10.3263C25.9397 10.4103 25.8306 10.5305 25.76 10.6732L25.0933 11.9857L23.6454 12.1993C23.4884 12.2226 23.341 12.2893 23.2198 12.3917C23.0985 12.4942 23.0083 12.6284 22.959 12.7793C22.9098 12.9301 22.9036 13.0918 22.9411 13.246C22.9786 13.4002 23.0584 13.5409 23.1714 13.6524L24.2183 14.6784ZM25.3433 13.0013C25.4798 12.9823 25.6096 12.9301 25.7213 12.8493C25.8329 12.7685 25.9231 12.6615 25.9839 12.5378L26.5047 11.4961L27.0256 12.5378C27.0864 12.6615 27.1766 12.7685 27.2882 12.8493C27.3999 12.9301 27.5297 12.9823 27.6662 13.0013L28.8433 13.1732L27.9943 14.0013C27.8945 14.0975 27.8196 14.2165 27.776 14.3481C27.7325 14.4796 27.7216 14.6198 27.7443 14.7565L27.9475 15.9284L26.9058 15.3763C26.7838 15.312 26.6479 15.2784 26.51 15.2784C26.372 15.2784 26.2362 15.312 26.1141 15.3763C26.062 15.3763 26.3797 15.2357 25.0725 15.9284L25.2756 14.7565C25.2983 14.6198 25.2874 14.4796 25.2439 14.3481C25.2003 14.2165 25.1254 14.0975 25.0256 14.0013L24.1662 13.1732L25.3433 13.0013Z" fill="#E83845"/>
<path d="M61.1974 14.6784L60.9526 16.1263C60.9262 16.2828 60.9439 16.4435 61.0037 16.5905C61.0635 16.7375 61.1631 16.8649 61.2913 16.9585C61.4194 17.052 61.5711 17.108 61.7294 17.1202C61.8876 17.1324 62.046 17.1002 62.187 17.0274L63.4839 16.3451C64.8485 17.0586 64.9006 17.1263 65.1818 17.1263C65.3061 17.1259 65.4287 17.0983 65.5412 17.0456C65.6537 16.9929 65.7534 16.9162 65.8332 16.821C65.9131 16.7258 65.9712 16.6143 66.0035 16.4943C66.0358 16.3744 66.0416 16.2488 66.0203 16.1263L65.7756 14.6784L66.8172 13.6368C66.9321 13.5265 67.0137 13.3862 67.0526 13.2318C67.0916 13.0774 67.0863 12.9151 67.0374 12.7636C66.9885 12.612 66.898 12.4773 66.7762 12.3747C66.6543 12.2722 66.5061 12.206 66.3485 12.1836L64.8953 11.9701L64.2703 10.6732C64.1997 10.5305 64.0906 10.4103 63.9553 10.3263C63.8201 10.2423 63.664 10.1978 63.5047 10.1978C63.3455 10.1978 63.1894 10.2423 63.0541 10.3263C62.9188 10.4103 62.8097 10.5305 62.7391 10.6732L62.0881 11.9909L60.6245 12.1993C60.4675 12.2226 60.3201 12.2893 60.1989 12.3917C60.0777 12.4942 59.9874 12.6284 59.9382 12.7793C59.889 12.9301 59.8828 13.0918 59.9203 13.246C59.9578 13.4002 60.0375 13.5409 60.1506 13.6524L61.1974 14.6784ZM62.3224 13.0013C62.459 12.9823 62.5887 12.9301 62.7004 12.8493C62.8121 12.7685 62.9023 12.6615 62.9631 12.5378L63.4839 11.4961L64.0047 12.5378C64.0655 12.6615 64.1557 12.7685 64.2674 12.8493C64.379 12.9301 64.5088 12.9823 64.6453 13.0013L65.8224 13.1732L64.9735 14.0013C64.8737 14.0975 64.7987 14.2165 64.7552 14.3481C64.7116 14.4796 64.7007 14.6198 64.7235 14.7565L64.9266 15.9284L63.8849 15.3763C63.7629 15.312 63.627 15.2784 63.4891 15.2784C63.3512 15.2784 63.2153 15.312 63.0933 15.3763C62.7322 15.5329 62.3839 15.7175 62.0516 15.9284L62.2547 14.7565C62.2774 14.6198 62.2666 14.4796 62.223 14.3481C62.1795 14.2165 62.1045 14.0975 62.0047 14.0013L61.1453 13.1732L62.3224 13.0013Z" fill="#E83845"/>
<path d="M36.1453 44.0431H53.8537C53.9918 44.0431 54.1243 43.9882 54.222 43.8905C54.3196 43.7928 54.3745 43.6604 54.3745 43.5222V38.9649C54.3745 38.8268 54.3196 38.6943 54.222 38.5966C54.1243 38.499 53.9918 38.4441 53.8537 38.4441H36.1453C36.0072 38.4441 35.8747 38.499 35.7771 38.5966C35.6794 38.6943 35.6245 38.8268 35.6245 38.9649V43.5222C35.6245 43.6604 35.6794 43.7928 35.7771 43.8905C35.8747 43.9882 36.0072 44.0431 36.1453 44.0431ZM36.6662 39.4858H53.3328V43.0014H36.6662V39.4858Z" fill="#555555"/>
<path d="M23.9422 42.8348H26.937C27.0751 42.8348 27.2076 42.7799 27.3053 42.6823C27.403 42.5846 27.4578 42.4521 27.4578 42.314V39.3192C27.4578 39.181 27.403 39.0486 27.3053 38.9509C27.2076 38.8532 27.0751 38.7983 26.937 38.7983H23.9422C23.8041 38.7983 23.6716 38.8532 23.5739 38.9509C23.4763 39.0486 23.4214 39.181 23.4214 39.3192V42.314C23.4214 42.4521 23.4763 42.5846 23.5739 42.6823C23.6716 42.7799 23.8041 42.8348 23.9422 42.8348ZM24.4631 39.84H26.4162V41.7931H24.4631V39.84Z" fill="#555555"/>
<path d="M28.8172 42.8348H31.812C31.9501 42.8348 32.0826 42.7799 32.1803 42.6823C32.278 42.5846 32.3328 42.4521 32.3328 42.314V39.3192C32.3328 39.181 32.278 39.0486 32.1803 38.9509C32.0826 38.8532 31.9501 38.7983 31.812 38.7983H28.8172C28.6791 38.7983 28.5466 38.8532 28.4489 38.9509C28.3513 39.0486 28.2964 39.181 28.2964 39.3192V42.314C28.2964 42.4521 28.3513 42.5846 28.4489 42.6823C28.5466 42.7799 28.6791 42.8348 28.8172 42.8348ZM29.3381 39.84H31.2912V41.7931H29.3381V39.84Z" fill="#555555"/>
<path d="M23.9422 37.8814H26.937C27.0751 37.8814 27.2076 37.8266 27.3053 37.7289C27.403 37.6312 27.4578 37.4987 27.4578 37.3606V34.3658C27.4578 34.2277 27.403 34.0952 27.3053 33.9975C27.2076 33.8998 27.0751 33.845 26.937 33.845H23.9422C23.8041 33.845 23.6716 33.8998 23.5739 33.9975C23.4763 34.0952 23.4214 34.2277 23.4214 34.3658V37.3606C23.4214 37.4987 23.4763 37.6312 23.5739 37.7289C23.6716 37.8266 23.8041 37.8814 23.9422 37.8814ZM24.4631 34.8866H26.4162V36.8398H24.4631V34.8866Z" fill="#555555"/>
<path d="M28.8172 37.8814H31.812C31.9501 37.8814 32.0826 37.8266 32.1803 37.7289C32.278 37.6312 32.3328 37.4987 32.3328 37.3606V34.3658C32.3328 34.2277 32.278 34.0952 32.1803 33.9975C32.0826 33.8998 31.9501 33.845 31.812 33.845H28.8172C28.6791 33.845 28.5466 33.8998 28.4489 33.9975C28.3513 34.0952 28.2964 34.2277 28.2964 34.3658V37.3606C28.2964 37.4987 28.3513 37.6312 28.4489 37.7289C28.5466 37.8266 28.6791 37.8814 28.8172 37.8814ZM29.3381 34.8866H31.2912V36.8398H29.3381V34.8866Z" fill="#555555"/>
<path d="M23.9422 32.9285H26.937C27.0751 32.9285 27.2076 32.8737 27.3053 32.776C27.403 32.6783 27.4578 32.5458 27.4578 32.4077V29.4129C27.4578 29.2748 27.403 29.1423 27.3053 29.0446C27.2076 28.947 27.0751 28.8921 26.937 28.8921H23.9422C23.8041 28.8921 23.6716 28.947 23.5739 29.0446C23.4763 29.1423 23.4214 29.2748 23.4214 29.4129V32.4077C23.4214 32.5458 23.4763 32.6783 23.5739 32.776C23.6716 32.8737 23.8041 32.9285 23.9422 32.9285ZM24.4631 29.9338H26.4162V31.8869H24.4631V29.9338Z" fill="#555555"/>
<path d="M28.8172 32.9285H31.812C31.9501 32.9285 32.0826 32.8737 32.1803 32.776C32.278 32.6783 32.3328 32.5458 32.3328 32.4077V29.4129C32.3328 29.2748 32.278 29.1423 32.1803 29.0446C32.0826 28.947 31.9501 28.8921 31.812 28.8921H28.8172C28.6791 28.8921 28.5466 28.947 28.4489 29.0446C28.3513 29.1423 28.2964 29.2748 28.2964 29.4129V32.4077C28.2964 32.5458 28.3513 32.6783 28.4489 32.776C28.5466 32.8737 28.6791 32.9285 28.8172 32.9285ZM29.3381 29.9338H31.2912V31.8869H29.3381V29.9338Z" fill="#555555"/>
<path d="M58.187 42.8348H61.1818C61.3199 42.8348 61.4524 42.7799 61.5501 42.6823C61.6478 42.5846 61.7026 42.4521 61.7026 42.314V39.3192C61.7026 39.181 61.6478 39.0486 61.5501 38.9509C61.4524 38.8532 61.3199 38.7983 61.1818 38.7983H58.187C58.0489 38.7983 57.9164 38.8532 57.8187 38.9509C57.7211 39.0486 57.6662 39.181 57.6662 39.3192V42.314C57.6662 42.4521 57.7211 42.5846 57.8187 42.6823C57.9164 42.7799 58.0489 42.8348 58.187 42.8348ZM58.7079 39.84H60.661V41.7931H58.7079V39.84Z" fill="#555555"/>
<path d="M63.062 42.8348H66.0568C66.1949 42.8348 66.3274 42.7799 66.4251 42.6823C66.5228 42.5846 66.5776 42.4521 66.5776 42.314V39.3192C66.5776 39.181 66.5228 39.0486 66.4251 38.9509C66.3274 38.8532 66.1949 38.7983 66.0568 38.7983H63.062C62.9239 38.7983 62.7914 38.8532 62.6937 38.9509C62.5961 39.0486 62.5412 39.181 62.5412 39.3192V42.314C62.5412 42.4521 62.5961 42.5846 62.6937 42.6823C62.7914 42.7799 62.9239 42.8348 63.062 42.8348ZM63.5829 39.84H65.536V41.7931H63.5829V39.84Z" fill="#555555"/>
<path d="M58.187 37.8814H61.1818C61.3199 37.8814 61.4524 37.8266 61.5501 37.7289C61.6478 37.6312 61.7026 37.4987 61.7026 37.3606V34.3658C61.7026 34.2277 61.6478 34.0952 61.5501 33.9975C61.4524 33.8998 61.3199 33.845 61.1818 33.845H58.187C58.0489 33.845 57.9164 33.8998 57.8187 33.9975C57.7211 34.0952 57.6662 34.2277 57.6662 34.3658V37.3606C57.6662 37.4987 57.7211 37.6312 57.8187 37.7289C57.9164 37.8266 58.0489 37.8814 58.187 37.8814ZM58.7079 34.8866H60.661V36.8398H58.7079V34.8866Z" fill="#555555"/>
<path d="M63.062 37.8814H66.0568C66.1949 37.8814 66.3274 37.8266 66.4251 37.7289C66.5228 37.6312 66.5776 37.4987 66.5776 37.3606V34.3658C66.5776 34.2277 66.5228 34.0952 66.4251 33.9975C66.3274 33.8998 66.1949 33.845 66.0568 33.845H63.062C62.9239 33.845 62.7914 33.8998 62.6937 33.9975C62.5961 34.0952 62.5412 34.2277 62.5412 34.3658V37.3606C62.5412 37.4987 62.5961 37.6312 62.6937 37.7289C62.7914 37.8266 62.9239 37.8814 63.062 37.8814ZM63.5829 34.8866H65.536V36.8398H63.5829V34.8866Z" fill="#555555"/>
<path d="M58.187 32.9285H61.1818C61.3199 32.9285 61.4524 32.8737 61.5501 32.776C61.6478 32.6783 61.7026 32.5458 61.7026 32.4077V29.4129C61.7026 29.2748 61.6478 29.1423 61.5501 29.0446C61.4524 28.947 61.3199 28.8921 61.1818 28.8921H58.187C58.0489 28.8921 57.9164 28.947 57.8187 29.0446C57.7211 29.1423 57.6662 29.2748 57.6662 29.4129V32.4077C57.6662 32.5458 57.7211 32.6783 57.8187 32.776C57.9164 32.8737 58.0489 32.9285 58.187 32.9285ZM58.7079 29.9338H60.661V31.8869H58.7079V29.9338Z" fill="#555555"/>
<path d="M63.062 32.9285H66.0568C66.1949 32.9285 66.3274 32.8737 66.4251 32.776C66.5228 32.6783 66.5776 32.5458 66.5776 32.4077V29.4129C66.5776 29.2748 66.5228 29.1423 66.4251 29.0446C66.3274 28.947 66.1949 28.8921 66.0568 28.8921H63.062C62.9239 28.8921 62.7914 28.947 62.6937 29.0446C62.5961 29.1423 62.5412 29.2748 62.5412 29.4129V32.4077C62.5412 32.5458 62.5961 32.6783 62.6937 32.776C62.7914 32.8737 62.9239 32.9285 63.062 32.9285ZM63.5829 29.9338H65.536V31.8869H63.5829V29.9338Z" fill="#555555"/>
<path d="M36.187 37.0535H39.1818C39.32 37.0535 39.4524 36.9987 39.5501 36.901C39.6478 36.8033 39.7027 36.6708 39.7027 36.5327V33.5379C39.7027 33.3998 39.6478 33.2673 39.5501 33.1696C39.4524 33.072 39.32 33.0171 39.1818 33.0171H36.187C36.0489 33.0171 35.9164 33.072 35.8187 33.1696C35.7211 33.2673 35.6662 33.3998 35.6662 33.5379V36.5327C35.6662 36.6708 35.7211 36.8033 35.8187 36.901C35.9164 36.9987 36.0489 37.0535 36.187 37.0535ZM36.7079 34.0588H38.661V36.0119H36.7079V34.0588Z" fill="#555555"/>
<path d="M41.062 37.0535H44.0568C44.195 37.0535 44.3274 36.9987 44.4251 36.901C44.5228 36.8033 44.5777 36.6708 44.5777 36.5327V33.5379C44.5777 33.3998 44.5228 33.2673 44.4251 33.1696C44.3274 33.072 44.195 33.0171 44.0568 33.0171H41.062C40.9239 33.0171 40.7914 33.072 40.6937 33.1696C40.5961 33.2673 40.5412 33.3998 40.5412 33.5379V36.5327C40.5412 36.6708 40.5961 36.8033 40.6937 36.901C40.7914 36.9987 40.9239 37.0535 41.062 37.0535ZM41.5829 34.0588H43.536V36.0119H41.5829V34.0588Z" fill="#555555"/>
<path d="M45.9422 37.0535H48.937C49.0751 37.0535 49.2076 36.9987 49.3053 36.901C49.403 36.8033 49.4578 36.6708 49.4578 36.5327V33.5379C49.4578 33.3998 49.403 33.2673 49.3053 33.1696C49.2076 33.072 49.0751 33.0171 48.937 33.0171H45.9422C45.8041 33.0171 45.6716 33.072 45.5739 33.1696C45.4763 33.2673 45.4214 33.3998 45.4214 33.5379V36.5327C45.4214 36.6708 45.4763 36.8033 45.5739 36.901C45.6716 36.9987 45.8041 37.0535 45.9422 37.0535ZM46.4631 34.0588H48.4162V36.0119H46.4631V34.0588Z" fill="#555555"/>
<path d="M50.8172 37.0535H53.812C53.9501 37.0535 54.0826 36.9987 54.1803 36.901C54.278 36.8033 54.3328 36.6708 54.3328 36.5327V33.5379C54.3328 33.3998 54.278 33.2673 54.1803 33.1696C54.0826 33.072 53.9501 33.0171 53.812 33.0171H50.8172C50.6791 33.0171 50.5466 33.072 50.4489 33.1696C50.3513 33.2673 50.2964 33.3998 50.2964 33.5379V36.5327C50.2964 36.6708 50.3513 36.8033 50.4489 36.901C50.5466 36.9987 50.6791 37.0535 50.8172 37.0535ZM51.3381 34.0588H53.2912V36.0119H51.3381V34.0588Z" fill="#555555"/>
<path d="M36.187 31.9754H39.1818C39.32 31.9754 39.4524 31.9206 39.5501 31.8229C39.6478 31.7252 39.7027 31.5927 39.7027 31.4546V28.4598C39.7027 28.3217 39.6478 28.1892 39.5501 28.0915C39.4524 27.9938 39.32 27.939 39.1818 27.939H36.187C36.0489 27.939 35.9164 27.9938 35.8187 28.0915C35.7211 28.1892 35.6662 28.3217 35.6662 28.4598V31.4546C35.6662 31.5927 35.7211 31.7252 35.8187 31.8229C35.9164 31.9206 36.0489 31.9754 36.187 31.9754ZM36.7079 28.9806H38.661V30.9338H36.7079V28.9806Z" fill="#555555"/>
<path d="M41.062 31.9754H44.0568C44.195 31.9754 44.3274 31.9206 44.4251 31.8229C44.5228 31.7252 44.5777 31.5927 44.5777 31.4546V28.4598C44.5777 28.3217 44.5228 28.1892 44.4251 28.0915C44.3274 27.9938 44.195 27.939 44.0568 27.939H41.062C40.9239 27.939 40.7914 27.9938 40.6937 28.0915C40.5961 28.1892 40.5412 28.3217 40.5412 28.4598V31.4546C40.5412 31.5927 40.5961 31.7252 40.6937 31.8229C40.7914 31.9206 40.9239 31.9754 41.062 31.9754ZM41.5829 28.9806H43.536V30.9338H41.5829V28.9806Z" fill="#555555"/>
<path d="M45.9422 31.9754H48.937C49.0751 31.9754 49.2076 31.9206 49.3053 31.8229C49.403 31.7252 49.4578 31.5927 49.4578 31.4546V28.4598C49.4578 28.3217 49.403 28.1892 49.3053 28.0915C49.2076 27.9938 49.0751 27.939 48.937 27.939H45.9422C45.8041 27.939 45.6716 27.9938 45.5739 28.0915C45.4763 28.1892 45.4214 28.3217 45.4214 28.4598V31.4546C45.4214 31.5927 45.4763 31.7252 45.5739 31.8229C45.6716 31.9206 45.8041 31.9754 45.9422 31.9754ZM46.4631 28.9806H48.4162V30.9338H46.4631V28.9806Z" fill="#555555"/>
<path d="M50.8172 31.9754H53.812C53.9501 31.9754 54.0826 31.9206 54.1803 31.8229C54.278 31.7252 54.3328 31.5927 54.3328 31.4546V28.4598C54.3328 28.3217 54.278 28.1892 54.1803 28.0915C54.0826 27.9938 53.9501 27.939 53.812 27.939H50.8172C50.6791 27.939 50.5466 27.9938 50.4489 28.0915C50.3513 28.1892 50.2964 28.3217 50.2964 28.4598V31.4546C50.2964 31.5927 50.3513 31.7252 50.4489 31.8229C50.5466 31.9206 50.6791 31.9754 50.8172 31.9754ZM51.3381 28.9806H53.2912V30.9338H51.3381V28.9806Z" fill="#555555"/>
<path d="M36.187 26.8973H39.1818C39.32 26.8973 39.4524 26.8424 39.5501 26.7448C39.6478 26.6471 39.7027 26.5146 39.7027 26.3765V23.3817C39.7027 23.2435 39.6478 23.1111 39.5501 23.0134C39.4524 22.9157 39.32 22.8608 39.1818 22.8608H36.187C36.0489 22.8608 35.9164 22.9157 35.8187 23.0134C35.7211 23.1111 35.6662 23.2435 35.6662 23.3817V26.3765C35.6662 26.5146 35.7211 26.6471 35.8187 26.7448C35.9164 26.8424 36.0489 26.8973 36.187 26.8973ZM36.7079 23.9025H38.661V25.8556H36.7079V23.9025Z" fill="#555555"/>
<path d="M41.062 26.8973H44.0568C44.195 26.8973 44.3274 26.8424 44.4251 26.7448C44.5228 26.6471 44.5777 26.5146 44.5777 26.3765V23.3817C44.5777 23.2435 44.5228 23.1111 44.4251 23.0134C44.3274 22.9157 44.195 22.8608 44.0568 22.8608H41.062C40.9239 22.8608 40.7914 22.9157 40.6937 23.0134C40.5961 23.1111 40.5412 23.2435 40.5412 23.3817V26.3765C40.5412 26.5146 40.5961 26.6471 40.6937 26.7448C40.7914 26.8424 40.9239 26.8973 41.062 26.8973ZM41.5829 23.9025H43.536V25.8556H41.5829V23.9025Z" fill="#555555"/>
<path d="M45.9422 26.8973H48.937C49.0751 26.8973 49.2076 26.8424 49.3053 26.7448C49.403 26.6471 49.4578 26.5146 49.4578 26.3765V23.3817C49.4578 23.2435 49.403 23.1111 49.3053 23.0134C49.2076 22.9157 49.0751 22.8608 48.937 22.8608H45.9422C45.8041 22.8608 45.6716 22.9157 45.5739 23.0134C45.4763 23.1111 45.4214 23.2435 45.4214 23.3817V26.3765C45.4214 26.5146 45.4763 26.6471 45.5739 26.7448C45.6716 26.8424 45.8041 26.8973 45.9422 26.8973ZM46.4631 23.9025H48.4162V25.8556H46.4631V23.9025Z" fill="#555555"/>
<path d="M50.8172 26.8973H53.812C53.9501 26.8973 54.0826 26.8424 54.1803 26.7448C54.278 26.6471 54.3328 26.5146 54.3328 26.3765V23.3817C54.3328 23.2435 54.278 23.1111 54.1803 23.0134C54.0826 22.9157 53.9501 22.8608 53.812 22.8608H50.8172C50.6791 22.8608 50.5466 22.9157 50.4489 23.0134C50.3513 23.1111 50.2964 23.2435 50.2964 23.3817V26.3765C50.2964 26.5146 50.3513 26.6471 50.4489 26.7448C50.5466 26.8424 50.6791 26.8973 50.8172 26.8973ZM51.3381 23.9025H53.2912V25.8556H51.3381V23.9025Z" fill="#555555"/>
<path d="M35.4839 50.0535H33.161C33.0228 50.0535 32.8904 50.1083 32.7927 50.206C32.695 50.3037 32.6401 50.4362 32.6401 50.5743V52.892C32.6401 53.0301 32.695 53.1626 32.7927 53.2603C32.8904 53.358 33.0228 53.4128 33.161 53.4128H35.4839C35.622 53.4128 35.7545 53.358 35.8522 53.2603C35.9498 53.1626 36.0047 53.0301 36.0047 52.892V50.5743C36.0047 50.4362 35.9498 50.3037 35.8522 50.206C35.7545 50.1083 35.622 50.0535 35.4839 50.0535ZM34.9631 52.3712H33.6818V51.0951H34.9631V52.3712Z" fill="#555555"/>
<path d="M30.2755 50.0535H27.9526C27.8145 50.0535 27.682 50.1083 27.5843 50.206C27.4867 50.3037 27.4318 50.4362 27.4318 50.5743V52.892C27.4318 53.0301 27.4867 53.1626 27.5843 53.2603C27.682 53.358 27.8145 53.4128 27.9526 53.4128H30.2755C30.4137 53.4128 30.5462 53.358 30.6438 53.2603C30.7415 53.1626 30.7964 53.0301 30.7964 52.892V50.5743C30.7964 50.4362 30.7415 50.3037 30.6438 50.206C30.5462 50.1083 30.4137 50.0535 30.2755 50.0535ZM29.7547 52.3712H28.4735V51.0951H29.7547V52.3712Z" fill="#555555"/>
<path d="M62.0464 50.0535H59.7235C59.5853 50.0535 59.4529 50.1083 59.3552 50.206C59.2575 50.3037 59.2026 50.4362 59.2026 50.5743V52.892C59.2026 53.0301 59.2575 53.1626 59.3552 53.2603C59.4529 53.358 59.5853 53.4128 59.7235 53.4128H62.0464C62.1845 53.4128 62.317 53.358 62.4147 53.2603C62.5123 53.1626 62.5672 53.0301 62.5672 52.892V50.5743C62.5672 50.4362 62.5123 50.3037 62.4147 50.206C62.317 50.1083 62.1845 50.0535 62.0464 50.0535ZM61.5256 52.3712H60.2443V51.0951H61.5256V52.3712Z" fill="#555555"/>
<path d="M56.838 50.0535H54.5151C54.377 50.0535 54.2445 50.1083 54.1468 50.206C54.0492 50.3037 53.9943 50.4362 53.9943 50.5743V52.892C53.9943 53.0301 54.0492 53.1626 54.1468 53.2603C54.2445 53.358 54.377 53.4128 54.5151 53.4128H56.838C56.9762 53.4128 57.1087 53.358 57.2063 53.2603C57.304 53.1626 57.3589 53.0301 57.3589 52.892V50.5743C57.3589 50.4362 57.304 50.3037 57.2063 50.206C57.1087 50.1083 56.9762 50.0535 56.838 50.0535ZM56.3172 52.3712H55.036V51.0951H56.3172V52.3712Z" fill="#555555"/>
</svg>
