<svg width="22" height="21" viewBox="0 0 22 21" fill="none" xmlns="http://www.w3.org/2000/svg">
<g clip-path="url(#clip0_3255_9237)">
<path d="M18.4199 1.46387H4.10994C2.61377 1.46387 1.39648 2.62006 1.39648 4.04165V12.3612C1.39648 13.7795 2.60847 14.9339 4.1003 14.9389V18.7142L9.81138 14.9389H18.4199C19.916 14.9389 21.1333 13.7825 21.1333 12.3612V4.04165C21.1333 2.62006 19.916 1.46387 18.4199 1.46387ZM19.9769 12.3612C19.9769 13.1767 19.2784 13.8403 18.4199 13.8403H9.44855L5.25676 16.6114V13.8403H4.10994C3.25139 13.8403 2.55294 13.1767 2.55294 12.3612V4.04165C2.55294 3.22591 3.25139 2.5625 4.10994 2.5625H18.4199C19.2784 2.5625 19.9769 3.22591 19.9769 4.04165V12.3612Z" fill="#3F51B5"/>
<path d="M6.67773 5.3457H15.8496V6.44434H6.67773V5.3457Z" fill="#3F51B5"/>
<path d="M6.67773 7.68945H15.8496V8.78809H6.67773V7.68945Z" fill="#3F51B5"/>
<path d="M6.67773 10.0332H15.8496V11.1318H6.67773V10.0332Z" fill="#3F51B5"/>
</g>
<defs>
<clipPath id="clip0_3255_9237">
<rect width="21.0526" height="20" fill="white" transform="translate(0.748047 0.116211)"/>
</clipPath>
</defs>
</svg>
