<svg width="28" height="25" viewBox="0 0 28 25" fill="none" xmlns="http://www.w3.org/2000/svg">
<path d="M14.6823 2.36719C9.16825 2.36719 4.68231 6.85312 4.68231 12.3672C4.68231 17.8813 9.16825 22.3672 14.6823 22.3672C20.1964 22.3672 24.6823 17.8813 24.6823 12.3672C24.6823 6.85312 20.1964 2.36719 14.6823 2.36719ZM14.6823 20.9386C9.95587 20.9386 6.11087 17.0936 6.11087 12.3672C6.11087 7.64074 9.95587 3.79574 14.6823 3.79574C19.4088 3.79574 23.2538 7.64074 23.2538 12.3672C23.2538 17.0936 19.4088 20.9386 14.6823 20.9386Z" fill="#E83845"/>
<g clip-path="url(#clip0_3269_11563)">
<path d="M9.82814 13.5547C9.19656 13.5547 8.68231 13.0404 8.68231 12.4089V8.74219C8.68231 8.11061 9.19656 7.59636 9.82814 7.59636H11.2031C11.4612 7.59636 11.6986 7.68344 11.8906 7.82829V13.5547H9.82814Z" fill="#E83845"/>
<path d="M19.6817 11.8346C19.6817 12.1101 19.5726 12.3668 19.3833 12.5561C19.5973 12.7903 19.7064 13.1042 19.6766 13.431C19.623 14.0136 19.0982 14.4701 18.4813 14.4701H15.6502C15.7904 14.8959 16.015 15.6764 16.015 16.3034C16.015 17.2975 15.1703 18.1367 14.64 18.1367C14.1638 18.1367 13.8237 17.8686 13.809 17.8576C13.755 17.814 13.7233 17.748 13.7233 17.6784V16.1242L12.4033 13.2646L12.3483 13.2367V8.32427C12.7214 8.14827 13.1935 8.05339 13.4942 8.05339H17.7012C18.2003 8.05339 18.6371 8.38982 18.7398 8.85409C18.7925 9.09289 18.7618 9.33352 18.6568 9.54252C18.9955 9.71302 19.2233 10.0618 19.2233 10.4596C19.2233 10.6219 19.1862 10.7773 19.1156 10.918C19.4543 11.0885 19.6817 11.4373 19.6817 11.8346Z" fill="#E83845"/>
</g>
<defs>
<clipPath id="clip0_3269_11563">
<rect width="11" height="11" fill="white" transform="matrix(1 0 0 -1 8.68231 18.3672)"/>
</clipPath>
</defs>
</svg>
