<svg width="21" height="21" viewBox="0 0 21 21" fill="none" xmlns="http://www.w3.org/2000/svg">
<path d="M10.4121 0.714844C4.89805 0.714844 0.412109 5.20078 0.412109 10.7148C0.412109 16.2289 4.89805 20.7148 10.4121 20.7148C15.9262 20.7148 20.4121 16.2289 20.4121 10.7148C20.4121 5.20078 15.9262 0.714844 10.4121 0.714844ZM10.4121 19.2863C5.68566 19.2863 1.84066 15.4413 1.84066 10.7148C1.84066 5.9884 5.68566 2.1434 10.4121 2.1434C15.1386 2.1434 18.9836 5.9884 18.9836 10.7148C18.9836 15.4413 15.1386 19.2863 10.4121 19.2863Z" fill="#3F51B5"/>
<g clip-path="url(#clip0_3255_8822)">
<path d="M6.55794 9.52734C5.92636 9.52734 5.41211 10.0416 5.41211 10.6732V14.3398C5.41211 14.9714 5.92636 15.4857 6.55794 15.4857H7.93294C8.19098 15.4857 8.42839 15.3986 8.62044 15.2537V9.52734H6.55794Z" fill="#3F51B5"/>
<path d="M16.4114 11.2474C16.4114 10.9719 16.3024 10.7153 16.1131 10.526C16.3271 10.2918 16.4362 9.97779 16.4064 9.65101C16.3528 9.06846 15.828 8.61196 15.2111 8.61196H12.38C12.5202 8.18617 12.7448 7.40564 12.7448 6.77864C12.7448 5.78451 11.9001 4.94531 11.3698 4.94531C10.8936 4.94531 10.5535 5.21344 10.5388 5.22444C10.4847 5.26799 10.4531 5.33399 10.4531 5.40364V6.95784L9.13312 9.81739L9.07812 9.84534V14.7578C9.4512 14.9338 9.92328 15.0286 10.224 15.0286H14.431C14.9301 15.0286 15.3669 14.6922 15.4696 14.2279C15.5223 13.9891 15.4916 13.7485 15.3866 13.5395C15.7253 13.369 15.9531 13.0202 15.9531 12.6224C15.9531 12.4601 15.916 12.3048 15.8454 12.1641C16.1841 11.9936 16.4114 11.6448 16.4114 11.2474Z" fill="#3F51B5"/>
</g>
<defs>
<clipPath id="clip0_3255_8822">
<rect width="11" height="11" fill="white" transform="translate(5.41211 4.71484)"/>
</clipPath>
</defs>
</svg>
