<svg width="132" height="38" viewBox="0 0 132 38" fill="none" xmlns="http://www.w3.org/2000/svg">
<path d="M42.6478 30.3907V32.9822C42.6478 34.5629 42.2615 35.7765 41.4889 36.62C40.7195 37.4666 39.5799 37.8883 38.0733 37.8883C36.5699 37.8883 35.4303 37.4666 34.6577 36.62C33.8883 35.7765 33.502 34.5629 33.502 32.9822V22.8319C33.502 21.2545 33.8883 20.0408 34.6577 19.1942C35.4303 18.3475 36.5699 17.9258 38.0733 17.9258C39.5799 17.9258 40.7195 18.3475 41.4889 19.1942C42.2615 20.0408 42.6478 21.2545 42.6478 22.8319V24.7281H39.7473V22.6388C39.7473 21.9305 39.6024 21.4348 39.3159 21.145C39.0262 20.8585 38.6399 20.7136 38.157 20.7136C37.6741 20.7136 37.2878 20.8585 37.0013 21.145C36.7115 21.4348 36.5699 21.9305 36.5699 22.6388V33.1786C36.5699 33.8836 36.7115 34.3761 37.0013 34.6562C37.2878 34.9331 37.6741 35.0747 38.157 35.0747C38.6399 35.0747 39.0262 34.9331 39.3159 34.6562C39.6024 34.3761 39.7473 33.8836 39.7473 33.1786V30.3907H42.6478Z" fill="white"/>
<path d="M48.6121 29.8881L47.6656 31.6715V37.6658H44.5977V18.1475H47.6656V26.6527L51.7347 18.1475H54.7479L50.4792 26.8491L54.7479 37.6658H51.5963L48.6121 29.8881Z" fill="white"/>
<path d="M66.0377 37.6658H62.944L62.4128 34.1246H58.6495L58.1215 37.6658H55.3047L58.4274 18.1475H62.915L66.0377 37.6658ZM59.039 31.4751H61.9943L60.5166 21.6049L59.039 31.4751Z" fill="white"/>
<path d="M73.2325 22.9436C73.2325 22.0712 73.0876 21.4789 72.8011 21.173C72.5114 20.8672 72.1251 20.7127 71.6422 20.7127C71.1593 20.7127 70.773 20.8575 70.4865 21.1441C70.1967 21.4338 70.0519 21.9295 70.0519 22.6378V24.7271H67.1545V22.8309C67.1545 21.2535 67.5409 20.0399 68.3103 19.1932C69.0829 18.3465 70.2193 17.9248 71.7259 17.9248C73.2325 17.9248 74.3721 18.3465 75.1415 19.1932C75.9141 20.0399 76.3004 21.2535 76.3004 22.8309V23.3331C76.3004 25.416 75.5825 26.7552 74.1532 27.3508C74.9322 27.6856 75.486 28.2006 75.8111 28.896C76.1362 29.5946 76.3004 30.4445 76.3004 31.4489V32.9812C76.3004 34.5619 75.9141 35.7755 75.1415 36.619C74.3721 37.4656 73.2325 37.8874 71.7259 37.8874C70.2193 37.8874 69.0829 37.4656 68.3103 36.619C67.5409 35.7755 67.1545 34.5619 67.1545 32.9812V30.5282H70.0519V33.1776C70.0519 33.8826 70.1967 34.3816 70.4865 34.6681C70.773 34.9578 71.1593 35.0995 71.6422 35.0995C72.1251 35.0995 72.5114 34.9514 72.8011 34.6552C73.0876 34.3558 73.2325 33.7732 73.2325 32.8975V31.3652C73.2325 30.4541 73.0747 29.8135 72.7593 29.4401C72.4405 29.0698 71.9319 28.8831 71.2237 28.8831H70.7504V26.0953H71.3911C71.9673 26.0953 72.418 25.9472 72.7432 25.6478C73.0683 25.3516 73.2325 24.8108 73.2325 24.0317V22.9436Z" fill="white"/>
<path d="M81.0406 33.1776C81.0406 33.8826 81.1855 34.3816 81.472 34.6681C81.7617 34.9578 82.1448 35.0995 82.6309 35.0995C83.1138 35.0995 83.5001 34.9578 83.7866 34.6681C84.0764 34.3816 84.218 33.8826 84.218 33.1776V22.6378C84.218 21.9295 84.0764 21.4338 83.7866 21.1441C83.5001 20.8575 83.1138 20.7127 82.6309 20.7127C82.1448 20.7127 81.7617 20.8575 81.472 21.1441C81.1855 21.4338 81.0406 21.9295 81.0406 22.6378V33.1776ZM77.9727 22.8309C77.9727 21.2535 78.3718 20.0399 79.1734 19.1932C79.9718 18.3465 81.1243 17.9248 82.6309 17.9248C84.1343 17.9248 85.2868 18.3465 86.0884 19.1932C86.8868 20.0399 87.2859 21.2535 87.2859 22.8309V32.9812C87.2859 34.5619 86.8868 35.7755 86.0884 36.619C85.2868 37.4656 84.1343 37.8874 82.6309 37.8874C81.1243 37.8874 79.9718 37.4656 79.1734 36.619C78.3718 35.7755 77.9727 34.5619 77.9727 32.9812V22.8309Z" fill="white"/>
<path d="M93.2539 29.8881L92.3043 31.6715V37.6658H89.2363V18.1475H92.3043V26.6527L96.3766 18.1475H99.3866L95.1211 26.8491L99.3866 37.6658H96.235L93.2539 29.8881Z" fill="white"/>
<path d="M103.847 37.6658H100.779V18.1475H103.847V26.5143H107.33V18.1475H110.453V37.6658H107.33V29.3022H103.847V37.6658Z" fill="#E83845"/>
<path d="M115.753 26.3726H119.964V29.1637H115.753V34.8779H121.052V37.6658H112.685V18.1475H121.052V20.9385H115.753V26.3726Z" fill="#E83845"/>
<path d="M122.027 18.1475H131.508V20.9385H128.298V37.6658H125.234V20.9385H122.027V18.1475Z" fill="#E83845"/>
<path fill-rule="evenodd" clip-rule="evenodd" d="M29.5184 11.8522V37.8881H21.6804V34.4265H26.2018V10.2301L19.7484 6.50351V9.3228L16.5117 11.1923V0.625L35.3969 11.8522H29.5184Z" fill="#E83845"/>
<path fill-rule="evenodd" clip-rule="evenodd" d="M16.4835 16.6139L10.0726 20.3154V34.6243H16.4835V28.6383H19.8051V37.8885H6.59846V21.99H0.5L19.7476 10.7979V22.2725H16.4835V16.6139Z" fill="white"/>
</svg>
