<svg width="154" height="41" viewBox="0 0 154 41" fill="none" xmlns="http://www.w3.org/2000/svg">
<path d="M49.8653 32.75V35.6014C49.8653 37.3405 49.4152 38.6759 48.5151 39.6039C47.6188 40.5355 46.2912 40.9995 44.536 40.9995C42.7846 40.9995 41.4569 40.5355 40.5568 39.6039C39.6605 38.6759 39.2104 37.3405 39.2104 35.6014V24.4333C39.2104 22.6976 39.6605 21.3623 40.5568 20.4307C41.4569 19.4992 42.7846 19.0352 44.536 19.0352C46.2912 19.0352 47.6188 19.4992 48.5151 20.4307C49.4152 21.3623 49.8653 22.6976 49.8653 24.4333V26.5195H46.4862V24.2207C46.4862 23.4415 46.3174 22.896 45.9836 22.5772C45.6461 22.262 45.196 22.1026 44.6335 22.1026C44.0709 22.1026 43.6209 22.262 43.2871 22.5772C42.9496 22.896 42.7846 23.4415 42.7846 24.2207V35.8174C42.7846 36.5932 42.9496 37.1351 43.2871 37.4433C43.6209 37.7479 44.0709 37.9037 44.6335 37.9037C45.196 37.9037 45.6461 37.7479 45.9836 37.4433C46.3174 37.1351 46.4862 36.5932 46.4862 35.8174V32.75H49.8653Z" fill="#3F51B5"/>
<path d="M56.8142 32.1972L55.7116 34.1595V40.7548H52.1375V19.2793H55.7116V28.6374L60.452 19.2793H63.9624L58.9894 28.8535L63.9624 40.7548H60.2908L56.8142 32.1972Z" fill="#3F51B5"/>
<path d="M77.1156 40.7548H73.5115L72.8926 36.8586H68.5085L67.8934 40.7548H64.6118L68.2497 19.2793H73.4777L77.1156 40.7548ZM68.9623 33.9434H72.4051L70.6837 23.0835L68.9623 33.9434Z" fill="#3F51B5"/>
<path d="M85.4962 24.5572C85.4962 23.5973 85.3275 22.9456 84.9937 22.6091C84.6562 22.2726 84.2061 22.1026 83.6436 22.1026C83.081 22.1026 82.6309 22.262 82.2972 22.5772C81.9596 22.896 81.7909 23.4415 81.7909 24.2207V26.5195H78.4155V24.4333C78.4155 22.6976 78.8656 21.3623 79.7619 20.4307C80.662 19.4992 81.9859 19.0352 83.7411 19.0352C85.4962 19.0352 86.8239 19.4992 87.7202 20.4307C88.6203 21.3623 89.0703 22.6976 89.0703 24.4333V24.9858C89.0703 27.2775 88.234 28.751 86.5688 29.4063C87.4764 29.7747 88.1215 30.3414 88.5003 31.1065C88.8791 31.8751 89.0703 32.8102 89.0703 33.9154V35.6014C89.0703 37.3405 88.6203 38.6759 87.7202 39.6039C86.8239 40.5355 85.4962 40.9995 83.7411 40.9995C81.9859 40.9995 80.662 40.5355 79.7619 39.6039C78.8656 38.6759 78.4155 37.3405 78.4155 35.6014V32.9023H81.7909V35.8174C81.7909 36.5932 81.9596 37.1422 82.2972 37.4574C82.6309 37.7762 83.081 37.9321 83.6436 37.9321C84.2061 37.9321 84.6562 37.7691 84.9937 37.4433C85.3275 37.1138 85.4962 36.4727 85.4962 35.5093V33.8233C85.4962 32.8209 85.3125 32.116 84.9449 31.7051C84.5736 31.2978 83.9811 31.0923 83.156 31.0923H82.6047V28.0249H83.351C84.0223 28.0249 84.5474 27.862 84.9262 27.5326C85.305 27.2067 85.4962 26.6116 85.4962 25.7544V24.5572Z" fill="#3F51B5"/>
<path d="M94.5929 35.8174C94.5929 36.5932 94.7617 37.1422 95.0955 37.4574C95.433 37.7762 95.8793 37.9321 96.4456 37.9321C97.0081 37.9321 97.4582 37.7762 97.792 37.4574C98.1295 37.1422 98.2945 36.5932 98.2945 35.8174V24.2207C98.2945 23.4415 98.1295 22.896 97.792 22.5772C97.4582 22.262 97.0081 22.1026 96.4456 22.1026C95.8793 22.1026 95.433 22.262 95.0955 22.5772C94.7617 22.896 94.5929 23.4415 94.5929 24.2207V35.8174ZM91.0188 24.4333C91.0188 22.6976 91.4838 21.3623 92.4177 20.4307C93.3478 19.4992 94.6904 19.0352 96.4456 19.0352C98.197 19.0352 99.5397 19.4992 100.473 20.4307C101.404 21.3623 101.869 22.6976 101.869 24.4333V35.6014C101.869 37.3405 101.404 38.6759 100.473 39.6039C99.5397 40.5355 98.197 40.9995 96.4456 40.9995C94.6904 40.9995 93.3478 40.5355 92.4177 39.6039C91.4838 38.6759 91.0188 37.3405 91.0188 35.6014V24.4333Z" fill="#3F51B5"/>
<path d="M108.822 32.1972L107.715 34.1595V40.7548H104.141V19.2793H107.715V28.6374L112.46 19.2793H115.966L110.997 28.8535L115.966 40.7548H112.295L108.822 32.1972Z" fill="#3F51B5"/>
<path d="M121.162 40.7548H117.588V19.2793H121.162V28.4851H125.22V19.2793H128.858V40.7548H125.22V31.5525H121.162V40.7548Z" fill="#E83845"/>
<path d="M135.034 28.3293H139.94V31.4002H135.034V37.6874H141.207V40.7548H131.46V19.2793H141.207V22.3503H135.034V28.3293Z" fill="#E83845"/>
<path d="M142.344 19.2793H153.388V22.3503H149.649V40.7548H146.079V22.3503H142.344V19.2793Z" fill="#E83845"/>
<path fill-rule="evenodd" clip-rule="evenodd" d="M34.5708 12.353V40.9997H25.4397V37.1909H30.707V10.5682L23.1889 6.46799V9.56998L19.4182 11.627V0L41.4192 12.353H34.5708Z" fill="#E83845"/>
<path fill-rule="evenodd" clip-rule="evenodd" d="M19.3851 17.5926L11.9166 21.6653V37.4091H19.3851V30.8228H23.2548V41.0006H7.86926V23.5078H0.764648L23.1879 11.1934V23.8186H19.3851V17.5926Z" fill="#3F51B5"/>
</svg>
