<svg width="131" height="38" viewBox="0 0 131 38" fill="none" xmlns="http://www.w3.org/2000/svg">
<g opacity="0.3">
<path d="M42.0767 30.4432V33.0148C42.0767 34.5833 41.6934 35.7876 40.9267 36.6246C40.1632 37.4647 39.0324 37.8832 37.5374 37.8832C36.0456 37.8832 34.9147 37.4647 34.148 36.6246C33.3846 35.7876 33.0012 34.5833 33.0012 33.0148V22.9426C33.0012 21.3773 33.3846 20.173 34.148 19.3328C34.9147 18.4927 36.0456 18.0742 37.5374 18.0742C39.0324 18.0742 40.1632 18.4927 40.9267 19.3328C41.6934 20.173 42.0767 21.3773 42.0767 22.9426V24.8242H39.1985V22.7509C39.1985 22.0482 39.0548 21.5562 38.7705 21.2687C38.4829 20.9844 38.0996 20.8406 37.6204 20.8406C37.1413 20.8406 36.7579 20.9844 36.4736 21.2687C36.1861 21.5562 36.0456 22.0482 36.0456 22.7509V33.2097C36.0456 33.9093 36.1861 34.398 36.4736 34.6759C36.7579 34.9507 37.1413 35.0912 37.6204 35.0912C38.0996 35.0912 38.4829 34.9507 38.7705 34.6759C39.0548 34.398 39.1985 33.9093 39.1985 33.2097V30.4432H42.0767Z" fill="#3F51B5"/>
<path d="M47.9945 29.9432L47.0553 31.713V37.6611H44.011V18.293H47.0553V26.7328L51.0932 18.293H54.0832L49.8473 26.9277L54.0832 37.6611H50.9558L47.9945 29.9432Z" fill="#3F51B5"/>
<path d="M65.2865 37.6611H62.2166L61.6895 34.1472H57.9552L57.4313 37.6611H54.6361L57.7348 18.293H62.1879L65.2865 37.6611ZM58.3417 31.5181H61.2742L59.808 21.7238L58.3417 31.5181Z" fill="#3F51B5"/>
<path d="M72.4256 23.0525C72.4256 22.1868 72.2818 21.599 71.9975 21.2955C71.71 20.992 71.3267 20.8387 70.8475 20.8387C70.3683 20.8387 69.985 20.9824 69.7007 21.2667C69.4132 21.5543 69.2694 22.0462 69.2694 22.749V24.8222H66.3944V22.9407C66.3944 21.3754 66.7777 20.171 67.5412 19.3309C68.3079 18.4907 69.4356 18.0723 70.9306 18.0723C72.4256 18.0723 73.5564 18.4907 74.3199 19.3309C75.0866 20.171 75.4699 21.3754 75.4699 22.9407V23.439C75.4699 25.5058 74.7576 26.8347 73.3392 27.4257C74.1123 27.7579 74.6617 28.269 74.9844 28.9591C75.307 29.6523 75.4699 30.4956 75.4699 31.4923V33.0129C75.4699 34.5813 75.0866 35.7857 74.3199 36.6226C73.5564 37.4628 72.4256 37.8812 70.9306 37.8812C69.4356 37.8812 68.3079 37.4628 67.5412 36.6226C66.7777 35.7857 66.3944 34.5813 66.3944 33.0129V30.5787H69.2694V33.2077C69.2694 33.9073 69.4132 34.4025 69.7007 34.6868C69.985 34.9743 70.3683 35.1148 70.8475 35.1148C71.3267 35.1148 71.71 34.9679 71.9975 34.674C72.2818 34.3769 72.4256 33.7987 72.4256 32.9298V31.4092C72.4256 30.5052 72.2691 29.8695 71.956 29.4989C71.6397 29.1316 71.135 28.9463 70.4322 28.9463H69.9626V26.1799H70.5983C71.1702 26.1799 71.6174 26.0329 71.94 25.7358C72.2627 25.4419 72.4256 24.9053 72.4256 24.1322V23.0525Z" fill="#3F51B5"/>
<path d="M80.1736 33.2097C80.1736 33.9093 80.3174 34.4044 80.6017 34.6887C80.8892 34.9762 81.2693 35.1168 81.7517 35.1168C82.2309 35.1168 82.6142 34.9762 82.8985 34.6887C83.186 34.4044 83.3266 33.9093 83.3266 33.2097V22.7509C83.3266 22.0482 83.186 21.5562 82.8985 21.2687C82.6142 20.9844 82.2309 20.8406 81.7517 20.8406C81.2693 20.8406 80.8892 20.9844 80.6017 21.2687C80.3174 21.5562 80.1736 22.0482 80.1736 22.7509V33.2097ZM77.1293 22.9426C77.1293 21.3773 77.5254 20.173 78.3208 19.3328C79.113 18.4927 80.2567 18.0742 81.7517 18.0742C83.2435 18.0742 84.3871 18.4927 85.1826 19.3328C85.9748 20.173 86.3709 21.3773 86.3709 22.9426V33.0148C86.3709 34.5833 85.9748 35.7876 85.1826 36.6246C84.3871 37.4647 83.2435 37.8832 81.7517 37.8832C80.2567 37.8832 79.113 37.4647 78.3208 36.6246C77.5254 35.7876 77.1293 34.5833 77.1293 33.0148V22.9426Z" fill="#3F51B5"/>
<path d="M92.2935 29.9432L91.3511 31.713V37.6611H88.3068V18.293H91.3511V26.7328L95.3921 18.293H98.379L94.1463 26.9277L98.379 37.6611H95.2516L92.2935 29.9432Z" fill="#3F51B5"/>
<path d="M102.805 37.6611H99.7606V18.293H102.805V26.5954H106.261V18.293H109.36V37.6611H106.261V29.3618H102.805V37.6611Z" fill="#E83845"/>
<path d="M114.62 26.4549H118.798V29.2245H114.62V34.8947H119.878V37.6611H111.576V18.293H119.878V21.0626H114.62V26.4549Z" fill="#E83845"/>
<path d="M120.844 18.293H130.252V21.0626H127.067V37.6611H124.026V21.0626H120.844V18.293Z" fill="#E83845"/>
<path fill-rule="evenodd" clip-rule="evenodd" d="M29.0474 12.0461V37.8817H21.2697V34.4467H25.7562V10.4364L19.3525 6.73856V9.53616L16.1407 11.3913V0.905273L34.8807 12.0461H29.0474Z" fill="#E83845"/>
<path fill-rule="evenodd" clip-rule="evenodd" d="M16.1124 16.7713L9.75089 20.4444V34.6432H16.1124V28.7032H19.4086V37.8822H6.30349V22.1061H0.251953L19.3515 11V22.3863H16.1124V16.7713Z" fill="#3F51B5"/>
</g>
</svg>
