<svg width="76" height="76" viewBox="0 0 76 76" fill="none" xmlns="http://www.w3.org/2000/svg">
<g clip-path="url(#clip0_2304_9860)">
<path d="M35.3253 51.6533C34.466 51.6533 33.7021 51.2714 33.2248 50.6986L18.8077 35.0403C17.7574 33.8946 17.853 32.0804 18.9986 31.0302C20.1443 29.9799 21.9584 30.0755 23.0087 31.2212L35.4207 44.6834L69.7927 10.407C70.9383 9.26138 72.7525 9.26138 73.8028 10.407C74.853 11.5527 74.9484 13.3669 73.8028 14.4171L37.3305 50.794C36.8529 51.367 36.0892 51.6533 35.3253 51.6533Z" fill="#E83845"/>
<path d="M38.0001 76C17.0904 76 0 58.9096 0 38.0001C0 17.0906 17.0904 0 38.0001 0C39.6233 0 40.8643 1.24124 40.8643 2.86424C40.8643 4.48724 39.6231 5.72848 38.0001 5.72848C20.2412 5.72848 5.72866 20.241 5.72866 37.9999C5.72866 55.7588 20.2412 70.2713 38.0001 70.2713C55.759 70.2713 70.2715 55.7588 70.2715 37.9999C70.2715 36.3767 71.5128 35.1357 73.1358 35.1357C74.7588 35.1357 76 36.3769 76 37.9999C76 58.9096 58.9096 76 38.0001 76Z" fill="#3F51B5"/>
</g>
<defs>
<clipPath id="clip0_2304_9860">
<rect width="76" height="76" fill="white"/>
</clipPath>
</defs>
</svg>
