<svg width="26" height="21" viewBox="0 0 26 21" fill="none" xmlns="http://www.w3.org/2000/svg">
<g clip-path="url(#clip0_2381_6121)">
<path d="M21.8559 -0.299805H4.18315C2.33538 -0.299805 0.832031 1.14544 0.832031 2.92242V13.3218C0.832031 15.0948 2.32884 16.5377 4.17124 16.544V21.2631L11.2244 16.544H21.8559C23.7037 16.544 25.207 15.0985 25.207 13.3218V2.92242C25.207 1.14544 23.7037 -0.299805 21.8559 -0.299805ZM23.7788 13.3218C23.7788 14.3412 22.9162 15.1707 21.8559 15.1707H10.7763L5.59947 18.6346V15.1707H4.18315C3.12284 15.1707 2.26025 14.3412 2.26025 13.3218V2.92242C2.26025 1.90275 3.12284 1.07349 4.18315 1.07349H21.8559C22.9162 1.07349 23.7788 1.90275 23.7788 2.92242V13.3218Z" fill="#3F51B5"/>
<path d="M7.35547 4.55273H18.6828V5.92603H7.35547V4.55273Z" fill="#3F51B5"/>
<path d="M7.35547 7.48242H18.6828V8.85571H7.35547V7.48242Z" fill="#3F51B5"/>
<path d="M7.35547 10.4121H18.6828V11.7854H7.35547V10.4121Z" fill="#3F51B5"/>
</g>
<defs>
<clipPath id="clip0_2381_6121">
<rect width="26" height="21" fill="white"/>
</clipPath>
</defs>
</svg>
