<svg width="18" height="11" viewBox="0 0 18 11" fill="none" xmlns="http://www.w3.org/2000/svg">
<path d="M0 5.49052C0.0234638 5.53745 0.0527935 5.60198 0.0879892 5.6841C0.123185 5.76622 0.211174 5.93634 0.351957 6.19444C0.492739 6.45254 0.645254 6.69891 0.8095 6.93355C0.973747 7.16818 1.20252 7.44975 1.49582 7.77824C1.78911 8.10674 2.09414 8.41763 2.4109 8.71093C2.72766 9.00423 3.12068 9.29166 3.58996 9.57322C4.05923 9.85479 4.54024 10.1012 5.03298 10.3123C5.52572 10.5235 6.10058 10.6877 6.75757 10.8051C7.41455 10.9224 8.095 10.9869 8.79892 10.9986C9.50283 11.0104 10.1833 10.9459 10.8403 10.8051C11.4973 10.6643 12.078 10.4942 12.5825 10.2947C13.0869 10.0953 13.5621 9.85479 14.0079 9.57322C14.4537 9.29166 14.8467 8.99836 15.1869 8.69333C15.5272 8.3883 15.8322 8.08914 16.102 7.79584C16.3719 7.50254 16.6006 7.20925 16.7883 6.91595C16.976 6.62265 17.1286 6.38215 17.2459 6.19444C17.3632 6.00673 17.4512 5.83661 17.5098 5.6841L17.5978 5.49052C17.5861 5.4436 17.5568 5.37907 17.5098 5.29695C17.4629 5.21482 17.3749 5.05058 17.2459 4.80421C17.1168 4.55784 16.9643 4.31147 16.7883 4.0651C16.6124 3.81873 16.3836 3.5313 16.102 3.20281C15.8205 2.87431 15.5154 2.56928 15.1869 2.28772C14.8584 2.00615 14.4654 1.71872 14.0079 1.42542C13.5503 1.13213 13.0693 0.885758 12.5649 0.686316C12.0604 0.486873 11.4855 0.322627 10.8403 0.193576C10.195 0.0645255 9.51456 0 8.79892 0C8.08327 0 7.40282 0.0645255 6.75757 0.193576C6.11231 0.322627 5.53159 0.486873 5.01538 0.686316C4.49918 0.885758 4.02404 1.13213 3.58996 1.42542C3.15588 1.71872 2.76286 2.00615 2.4109 2.28772C2.05895 2.56928 1.75392 2.87431 1.49582 3.20281C1.23771 3.5313 1.00894 3.81873 0.8095 4.0651C0.610058 4.31147 0.457544 4.55784 0.351957 4.80421C0.24637 5.05058 0.158381 5.22069 0.0879892 5.31455L0 5.49052ZM5.50812 5.49052C5.50812 4.58717 5.82488 3.81286 6.45841 3.16761C7.09193 2.52236 7.8721 2.19973 8.79892 2.19973C9.72574 2.19973 10.5059 2.52236 11.1394 3.16761C11.773 3.81286 12.0956 4.58717 12.1073 5.49052C12.119 6.39388 11.7964 7.17405 11.1394 7.83104C10.4824 8.48802 9.70227 8.81065 8.79892 8.79892C7.89556 8.78718 7.11539 8.46456 6.45841 7.83104C5.80142 7.19751 5.48466 6.41734 5.50812 5.49052ZM6.59919 5.49052C6.59919 6.10058 6.81623 6.62265 7.25031 7.05673C7.68439 7.49081 8.20059 7.70199 8.79892 7.69025C9.39724 7.67852 9.91345 7.46735 10.3475 7.05673C10.7816 6.64611 10.9986 6.12405 10.9986 5.49052C10.9986 4.857 10.7816 4.3408 10.3475 3.94191C9.91345 3.54303 9.39724 3.32599 8.79892 3.2908C8.20059 3.2556 7.68439 3.47264 7.25031 3.94191L8.79892 5.49052H6.59919Z" fill="#383838"/>
</svg>
