<svg width="29" height="24" viewBox="0 0 29 24" fill="none" xmlns="http://www.w3.org/2000/svg">
<path d="M27.5254 4.58447H14.8348C14.7495 4.43713 14.6514 4.29541 14.5254 4.16943L10.9395 0.584473C10.1602 -0.194824 8.89062 -0.194824 8.11133 0.584473L4.52539 4.16943C4.39941 4.29541 4.30127 4.43713 4.216 4.58447H1.52539C0.973145 4.58447 0.525391 5.03174 0.525391 5.58447C0.525391 6.13721 0.973145 6.58447 1.52539 6.58447H4.21655C4.30176 6.73145 4.39972 6.87286 4.52539 6.99854L8.11133 10.5835C8.50146 10.9731 9.01318 11.1685 9.52539 11.1685C10.0376 11.1685 10.5498 10.9731 10.9395 10.5835L14.5254 6.99854C14.6511 6.87286 14.749 6.73145 14.8342 6.58447H27.5254C28.0776 6.58447 28.5254 6.13721 28.5254 5.58447C28.5254 5.03174 28.0776 4.58447 27.5254 4.58447Z" fill="#2C2C2C"/>
<path d="M27.5254 17.2476H24.8342C24.749 17.1006 24.6511 16.9592 24.5254 16.8335L20.9395 13.2485C20.1602 12.4692 18.8906 12.4692 18.1113 13.2485L14.5254 16.8335C14.3997 16.9592 14.3018 17.1006 14.2166 17.2476H1.52539C0.973145 17.2476 0.525391 17.6948 0.525391 18.2476C0.525391 18.8003 0.973145 19.2476 1.52539 19.2476H14.216C14.3013 19.3949 14.3994 19.5366 14.5254 19.6626L18.1113 23.2476C18.501 23.6372 19.0132 23.8325 19.5254 23.8325C20.0376 23.8325 20.5498 23.6372 20.9395 23.2476L24.5254 19.6626C24.6514 19.5366 24.7495 19.3949 24.8348 19.2476H27.5254C28.0776 19.2476 28.5254 18.8003 28.5254 18.2476C28.5254 17.6948 28.0776 17.2476 27.5254 17.2476Z" fill="#2C2C2C"/>
</svg>
