<svg width="25" height="25" viewBox="0 0 25 25" fill="none" xmlns="http://www.w3.org/2000/svg">
<path d="M12.7143 16.4286C13.0932 16.4286 13.4565 16.2781 13.7244 16.0102C13.9923 15.7422 14.1429 15.3789 14.1429 15C14.1429 14.6211 13.9923 14.2578 13.7244 13.9898C13.4565 13.7219 13.0932 13.5714 12.7143 13.5714C12.3354 13.5714 11.972 13.7219 11.7041 13.9898C11.4362 14.2578 11.2857 14.6211 11.2857 15C11.2857 15.3789 11.4362 15.7422 11.7041 16.0102C11.972 16.2781 12.3354 16.4286 12.7143 16.4286ZM17 10C17.3789 10 17.7422 10.1505 18.0102 10.4184C18.2781 10.6863 18.4286 11.0497 18.4286 11.4286V18.5714C18.4286 18.9503 18.2781 19.3137 18.0102 19.5816C17.7422 19.8495 17.3789 20 17 20H8.42857C8.04969 20 7.68633 19.8495 7.41842 19.5816C7.15051 19.3137 7 18.9503 7 18.5714V11.4286C7 11.0497 7.15051 10.6863 7.41842 10.4184C7.68633 10.1505 8.04969 10 8.42857 10H9.14286V8.57143C9.14286 7.62423 9.51913 6.71582 10.1889 6.04605C10.8587 5.37627 11.7671 5 12.7143 5C13.1833 5 13.6477 5.09238 14.081 5.27186C14.5143 5.45134 14.908 5.71441 15.2397 6.04605C15.5713 6.37769 15.8344 6.7714 16.0139 7.2047C16.1933 7.63801 16.2857 8.10242 16.2857 8.57143V10H17ZM12.7143 6.42857C12.146 6.42857 11.6009 6.65434 11.1991 7.0562C10.7972 7.45806 10.5714 8.00311 10.5714 8.57143V10H14.8571V8.57143C14.8571 8.00311 14.6314 7.45806 14.2295 7.0562C13.8277 6.65434 13.2826 6.42857 12.7143 6.42857Z" fill="#383838"/>
</svg>
