<svg width="31" height="29" viewBox="0 0 31 29" fill="none" xmlns="http://www.w3.org/2000/svg">
<path fill-rule="evenodd" clip-rule="evenodd" d="M8.42991 7.4906C7.91148 7.02077 7.08814 7.03678 6.5907 7.52634L0.537809 13.4831C0.0547638 13.9584 0.0547638 14.709 0.537809 15.1844L6.5907 21.1411C7.08814 21.6306 7.91148 21.6467 8.42991 21.1768C8.94816 20.707 8.96516 19.9293 8.46772 19.4398L4.52809 15.5626H16.6132C17.3316 15.5626 17.9141 15.0125 17.9141 14.334C17.9141 13.6555 17.3316 13.1055 16.6132 13.1055H4.52739L8.46772 9.22769C8.96516 8.73813 8.94816 7.96042 8.42991 7.4906Z" fill="white"/>
<path fill-rule="evenodd" clip-rule="evenodd" d="M30.5273 1.22857C30.5273 0.550055 29.9449 0 29.2265 0H12.8281C12.1095 0 11.5273 0.550055 11.5273 1.22857V6.14285C11.5273 6.82136 12.1095 7.37142 12.8281 7.37142C13.5465 7.37142 14.129 6.82136 14.129 6.14285V2.45714H27.9257V26.2095H14.129V22.5238C14.129 21.8453 13.5465 21.2952 12.8281 21.2952C12.1095 21.2952 11.5273 21.8453 11.5273 22.5238V27.4381C11.5273 28.1166 12.1095 28.6666 12.8281 28.6666H29.2265C29.9449 28.6666 30.5273 28.1166 30.5273 27.4381V1.22857Z" fill="white"/>
</svg>
