<svg width="25" height="25" viewBox="0 0 25 25" fill="none" xmlns="http://www.w3.org/2000/svg">
<path d="M19.5715 6C19.8072 6 20 6.19284 20 6.42855V6.48279C20 6.7185 19.8406 7.01981 19.6457 7.15238L12.8506 12.2028C12.6557 12.3354 12.3367 12.3354 12.1418 12.2029L5.35443 7.15996C5.15952 7.02738 5 6.72616 5 6.49045V6.42864C5 6.19292 5.19284 6.00009 5.42855 6.00009H19.5715V6Z" fill="#383838"/>
<path d="M12.1504 13.6227C12.3406 13.762 12.6518 13.7621 12.8421 13.6229L19.6542 8.63792C19.8444 8.49871 20 8.57765 20 8.81337V17.8145C20 18.0502 19.8072 18.2431 19.5715 18.2431H5.42855C5.19284 18.2431 5 18.0502 5 17.8145V8.81337C5 8.57765 5.15556 8.4988 5.34573 8.63809L12.1504 13.6227Z" fill="#383838"/>
</svg>
