<svg width="23" height="25" viewBox="0 0 23 25" fill="none" xmlns="http://www.w3.org/2000/svg">
<g clip-path="url(#clip0_169_991)">
<path d="M5.08626 0.216309H1.4196C0.913596 0.216309 0.50293 0.623581 0.50293 1.1254V4.76176C0.50293 5.26358 0.913596 5.67085 1.4196 5.67085H5.08626C5.59226 5.67085 6.00293 5.26358 6.00293 4.76176V1.1254C6.00293 0.623581 5.59226 0.216309 5.08626 0.216309Z" fill="white"/>
<path d="M5.08626 8.39844H1.4196C0.913596 8.39844 0.50293 8.80571 0.50293 9.30753V12.9439C0.50293 13.4457 0.913596 13.853 1.4196 13.853H5.08626C5.59226 13.853 6.00293 13.4457 6.00293 12.9439V9.30753C6.00293 8.80571 5.59226 8.39844 5.08626 8.39844Z" fill="white"/>
<path d="M5.08626 16.5801H1.4196C0.913596 16.5801 0.50293 16.9874 0.50293 17.4892V21.1255C0.50293 21.6273 0.913596 22.0346 1.4196 22.0346H5.08626C5.59226 22.0346 6.00293 21.6273 6.00293 21.1255V17.4892C6.00293 16.9874 5.59226 16.5801 5.08626 16.5801Z" fill="white"/>
<path d="M13.3363 0.216309H9.6696C9.1636 0.216309 8.75293 0.623581 8.75293 1.1254V4.76176C8.75293 5.26358 9.1636 5.67085 9.6696 5.67085H13.3363C13.8423 5.67085 14.2529 5.26358 14.2529 4.76176V1.1254C14.2529 0.623581 13.8423 0.216309 13.3363 0.216309Z" fill="white"/>
<path d="M13.3363 8.39844H9.6696C9.1636 8.39844 8.75293 8.80571 8.75293 9.30753V12.9439C8.75293 13.4457 9.1636 13.853 9.6696 13.853H13.3363C13.8423 13.853 14.2529 13.4457 14.2529 12.9439V9.30753C14.2529 8.80571 13.8423 8.39844 13.3363 8.39844Z" fill="white"/>
<path d="M13.3363 16.5801H9.6696C9.1636 16.5801 8.75293 16.9874 8.75293 17.4892V21.1255C8.75293 21.6273 9.1636 22.0346 9.6696 22.0346H13.3363C13.8423 22.0346 14.2529 21.6273 14.2529 21.1255V17.4892C14.2529 16.9874 13.8423 16.5801 13.3363 16.5801Z" fill="white"/>
<path d="M21.5863 0.216309H17.9196C17.4136 0.216309 17.0029 0.623581 17.0029 1.1254V4.76176C17.0029 5.26358 17.4136 5.67085 17.9196 5.67085H21.5863C22.0923 5.67085 22.5029 5.26358 22.5029 4.76176V1.1254C22.5029 0.623581 22.0923 0.216309 21.5863 0.216309Z" fill="white"/>
<path d="M21.5863 8.39844H17.9196C17.4136 8.39844 17.0029 8.80571 17.0029 9.30753V12.9439C17.0029 13.4457 17.4136 13.853 17.9196 13.853H21.5863C22.0923 13.853 22.5029 13.4457 22.5029 12.9439V9.30753C22.5029 8.80571 22.0923 8.39844 21.5863 8.39844Z" fill="white"/>
<path d="M21.5863 16.5801H17.9196C17.4136 16.5801 17.0029 16.9874 17.0029 17.4892V21.1255C17.0029 21.6273 17.4136 22.0346 17.9196 22.0346H21.5863C22.0923 22.0346 22.5029 21.6273 22.5029 21.1255V17.4892C22.5029 16.9874 22.0923 16.5801 21.5863 16.5801Z" fill="white"/>
</g>
<defs>
<clipPath id="clip0_169_991">
<rect width="22" height="24" fill="white" transform="translate(0.869141 0.133301)"/>
</clipPath>
</defs>
</svg>
